<svg width="390" height="204" viewBox="0 0 390 204" fill="none" xmlns="http://www.w3.org/2000/svg">
<path d="M141.883 202.83H38.4025L41.8269 181.447C43.5361 180.192 43.1088 168.518 42.6815 162.837L41.8269 156.041C40.3741 153.281 48.4857 144.158 52.7231 139.941L59.8803 125.304L56.3551 128.231L56.8892 118.926L59.1325 111.085L54.6459 119.867V132.413L39.6904 152.905V159.492L31.9991 164.196H25.6964C20.2269 164.364 18.2186 160.572 17.8982 158.655C16.3599 162.244 20.1771 164.681 22.278 165.451C17.065 169.215 16.4739 172.456 16.83 173.606L9.13858 172.978L8.28398 174.442C15.5481 172.686 17.008 177.195 16.83 179.67L35.6311 182.283H0.378906L11.5955 156.041C11.5955 147.845 17.6489 146.005 20.6756 146.109L28.7943 125.304L25.6964 128.231C17.0649 129.319 10.8477 124.293 8.81803 121.645C7.14956 112.779 9.51323 106.855 10.9036 105.001L23.9259 92.9498C25.2771 89.5369 24.4889 87.8305 23.9259 87.4039C23.8387 92.1551 22.7635 92.0854 22.2368 91.4566C17.224 86.8493 17.896 81.0048 18.8586 78.6584C18.9022 80.3649 21.681 81.2404 23.0649 81.4648C19.0814 79.9054 21.4051 73.4684 23.0649 70.4449C29.4384 80.3927 30.8658 84.944 30.7828 85.9762C32.3762 89.3904 22.484 99.6247 17.3388 104.315C8.77442 110.348 13.7703 117.988 17.3388 121.054C30.8825 123.485 45.7208 105.88 51.447 96.7739C64.7915 73.0803 75.5273 61.059 79.2272 58.0101C86.5859 52.2896 93.7136 50.4778 96.3576 50.287C90.7586 54.723 89.581 65.5739 89.6921 70.4449C89.2122 76.1334 99.3571 84.775 104.49 88.3847C102.037 86.5059 97.4686 80.9043 95.4911 78.3384C90.4253 70.8754 93.958 59.6157 96.3576 54.9187C101.477 46.986 110.889 44.8289 114.955 44.7419H140.684C143.616 45.7857 148.66 42.0455 150.815 40.0449C150.602 44.1678 147.482 47.2426 145.949 48.2647C145.043 49.2562 129.619 52.5485 122.02 54.0706C116.901 56.106 114.599 61.0944 114.088 63.3341C111.755 68.6582 127.286 77.9859 127.286 77.6208C127.286 77.3287 120.398 70.932 116.954 67.7702C114.661 63.5429 118.859 59.5021 121.245 58.0101C141.419 67.0802 148.055 79.1736 147.613 79.1736C147.26 79.1736 143.494 78.3818 141.656 77.9859V79.1736C148.099 80.4694 151.916 84.2486 153.019 85.9762C152.843 93.2323 165.376 94.0385 171.665 93.5346C176.431 95.0895 178.578 80.3614 179.056 72.803C180.91 67.9656 185.86 64.9566 188.103 64.0568C185.985 65.7845 185.235 68.5919 185.124 69.7796V96.7739C182.035 110.854 164.05 110.055 155.443 107.896L154.677 101.9C154.133 106.697 149.118 116.668 146.679 121.054C151.172 136.11 140.382 140.485 134.426 140.79C127.483 142.389 117.836 130.741 113.881 124.718C102.005 116.44 100.393 107.667 101.071 104.315C96.4425 114.308 106.819 123.196 112.586 126.391C119.756 140.504 128.188 143.578 131.508 143.35C125.931 154.812 140.006 173.987 147.741 182.142L184.29 187.211H124.636V175.904C123.282 168.263 114.312 161.024 109.997 158.36C112.155 154.656 116.351 147.19 115.873 146.957C115.395 146.723 114.346 148.029 113.881 148.711L105.515 160.699C105.197 162.727 97.6811 161.544 93.9631 160.699C91.095 158.594 82.2117 156.508 78.1286 155.729C89.0434 143.409 90.7099 136.82 90.1787 135.066C90.2584 136.001 80.7842 148.191 76.0372 154.169C68.4685 161.889 80.2531 184.546 87.0915 194.91L141.883 202.83Z" fill="#043253" stroke="#FCF7F1" stroke-width="0.5"/>
<path d="M130.6 108.619L124.366 100.338L123.743 105.219C123.244 107.73 128.107 109.054 130.6 109.403V108.619Z" fill="white" fill-opacity="0.9" stroke="#FCF7F1" stroke-width="0.5"/>
<path d="M183.164 21.6789C147.063 -7.2871 110.934 9.60976 97.3828 21.6789C121.406 -5.96948 157.99 -0.279804 173.28 6.02109C203.582 18.9529 212.608 49.9614 213.333 63.8492C212.548 109.717 176.909 126.729 159.188 129.501C161.457 124.743 164.995 121.572 166.48 120.581C169.721 120.263 178.953 113.666 183.164 110.407C222.842 72.5287 199.696 35.4723 183.164 21.6789Z" fill="#D3DDE6" stroke="#D3DDE6" stroke-width="1.65863"/>
<path d="M238.259 146.809H258.355V154.361H227.891V147.449L247.859 117.241H227.891V109.689H258.355V116.601L238.259 146.809ZM274.942 116.921V128.121H289.982V135.225H274.942V147.065H291.902V154.361H265.982V109.625H291.902V116.921H274.942ZM330.445 109.689V116.921H318.541V154.361H309.581V116.921H297.677V109.689H330.445ZM364.374 145.849H346.582L343.638 154.361H334.23L350.294 109.625H360.726L376.79 154.361H367.318L364.374 145.849ZM361.942 138.681L355.478 119.993L349.014 138.681H361.942Z" fill="#043253"/>
</svg>
