<svg width="77" height="67" viewBox="0 0 77 67" fill="none" xmlns="http://www.w3.org/2000/svg">
<path d="M50.8356 66.2931H14.3914L15.5974 59.3814C16.1993 58.9759 16.0488 55.2023 15.8983 53.3661L15.5974 51.1695C15.0857 50.2774 17.9425 47.3283 19.4348 45.9653L21.9555 41.2342L20.714 42.1804L20.9021 39.1728L21.6921 36.6383L20.112 39.4769V43.5322L14.8449 50.1557V52.2847L12.1361 53.8055H9.91642C7.99016 53.8595 7.28289 52.6339 7.17003 52.0144C6.62827 53.1744 7.97264 53.9621 8.71254 54.211C6.87659 55.4276 6.66841 56.4752 6.79381 56.8469L4.08502 56.6441L3.78405 57.1172C6.34235 56.5495 6.85651 58.0071 6.79381 58.8069L13.4153 59.6518H1L4.95031 51.1695C4.95031 48.5201 7.08223 47.9254 8.14819 47.9591L11.0075 41.2342L9.91642 42.1804C6.87656 42.5319 4.68695 40.9075 3.97213 40.0514C3.38452 37.1857 4.21697 35.271 4.70665 34.6718L9.29289 30.7763C9.76878 29.6732 9.49118 29.1216 9.29289 28.9837C9.26218 30.5194 8.88352 30.4969 8.69802 30.2937C6.9326 28.8044 7.16927 26.9153 7.50828 26.1569C7.52363 26.7085 8.50226 26.9915 8.98966 27.064C7.58675 26.56 8.40512 24.4793 8.98966 23.502C11.2343 26.7175 11.737 28.1886 11.7078 28.5222C12.269 29.6258 8.78509 32.9338 6.97301 34.4499C3.95677 36.3999 5.71625 38.8694 6.97301 39.8604C11.7429 40.6463 16.9687 34.9559 18.9854 32.0124C23.6851 24.3539 27.4661 20.4682 28.7692 19.4827C31.3608 17.6336 33.8711 17.048 34.8023 16.9863C32.8304 18.4202 32.4156 21.9276 32.4548 23.502C32.2857 25.3407 35.8586 28.134 37.6662 29.3007C36.8023 28.6935 35.1935 26.8828 34.4971 26.0535C32.713 23.6412 33.9572 20.0017 34.8023 18.4835C36.6052 15.9194 39.9198 15.2221 41.3518 15.194H50.4132C51.4461 15.5314 53.2224 14.3224 53.9814 13.6758C53.9063 15.0084 52.8077 16.0023 52.2677 16.3327C51.9485 16.6532 46.5163 17.7173 43.8402 18.2093C42.0373 18.8672 41.2266 20.4796 41.0466 21.2036C40.225 22.9245 45.6947 25.9395 45.6947 25.8215C45.6947 25.7271 43.2689 23.6595 42.0561 22.6375C41.2485 21.2711 42.727 19.965 43.5672 19.4827C50.6721 22.4144 53.0091 26.3234 52.8537 26.3234C52.7294 26.3234 51.4031 26.0675 50.7555 25.9395V26.3234C53.0247 26.7422 54.3691 27.9638 54.7576 28.5222C54.6954 30.8676 59.1094 31.1282 61.3242 30.9653C63.0028 31.4679 63.7591 26.7073 63.9275 24.2642C64.5803 22.7006 66.3236 21.728 67.1137 21.4372C66.3677 21.9956 66.1034 22.9031 66.0646 23.287V32.0124C64.9766 36.5636 58.6424 36.3054 55.6112 35.6074L55.3415 33.6693C55.1498 35.2198 53.3837 38.4427 52.5247 39.8604C54.1069 44.7271 50.3071 46.1411 48.2094 46.2398C45.7641 46.7567 42.3667 42.9918 40.9736 41.0447C36.7913 38.3689 36.2235 35.5333 36.4624 34.4499C34.8321 37.68 38.4867 40.5529 40.5177 41.5856C43.043 46.1474 46.0125 47.1409 47.1816 47.0674C45.2175 50.7723 50.1746 56.9703 52.8986 59.6061L65.7706 61.2444H44.7616V57.5899C44.2846 55.1199 41.1256 52.7802 39.6058 51.919C40.3657 50.7219 41.8435 48.3086 41.6751 48.233C41.5068 48.1574 41.1373 48.5796 40.9736 48.8001L38.0275 52.6752C37.9152 53.3304 35.2684 52.9482 33.9589 52.6752C32.9488 51.9947 29.8203 51.3205 28.3823 51.0684C32.2263 47.0863 32.8132 44.9566 32.6262 44.3895C32.6542 44.6919 29.3175 48.6321 27.6457 50.5644C24.9801 53.0595 29.1305 60.3833 31.5389 63.7332L50.8356 66.2931Z" fill="#043253" stroke="#FCF7F1" stroke-width="0.5"/>
<path d="M46.8614 35.8406L44.6657 33.1641L44.4461 34.7418C44.2705 35.5533 45.9831 35.9815 46.8614 36.0942V35.8406Z" fill="white" stroke="#FCF7F1" stroke-width="0.5"/>
<path d="M65.3748 7.73902C52.6605 -1.62373 39.9367 3.83787 35.1641 7.73902C43.6247 -1.19783 56.5091 0.641251 61.8938 2.6779C72.5658 6.85786 75.7447 16.8808 76.0001 21.3698C75.7235 36.1958 63.1721 41.6944 56.931 42.5905C57.73 41.0527 58.9759 40.0275 59.499 39.7072C60.6403 39.6046 63.8917 37.4722 65.3748 36.4189C79.349 24.1753 71.1974 12.1975 65.3748 7.73902Z" fill="#D3DDE6" stroke="#D3DDE6" stroke-width="1.65863"/>
</svg>
