<svg width="21" height="22" viewBox="0 0 21 22" fill="none" xmlns="http://www.w3.org/2000/svg">
<path d="M8.05176 0.652344C12.1069 0.652344 15.4512 4.12574 15.4512 8.4834C15.4512 12.841 12.1069 16.3145 8.05176 16.3145C3.99662 16.3144 0.652364 12.841 0.652344 8.4834C0.652344 4.12576 3.99661 0.652372 8.05176 0.652344Z" stroke="black" stroke-width="1.30392"/>
<path d="M18.9614 21.2607C19.2162 21.5151 19.6294 21.5151 19.8842 21.2607C20.1391 21.0063 20.1391 20.5939 19.8842 20.3396L19.4228 20.8001L18.9614 21.2607ZM12.2656 13.6562L11.8042 14.1168L18.9614 21.2607L19.4228 20.8001L19.8842 20.3396L12.7271 13.1957L12.2656 13.6562Z" fill="black"/>
</svg>
