<svg width="31" height="23" viewBox="0 0 31 23" fill="none" xmlns="http://www.w3.org/2000/svg">
<mask id="mask0_3098_1317" style="mask-type:alpha" maskUnits="userSpaceOnUse" x="0" y="0" width="31" height="23">
<path d="M21.1364 9.6878C23.4755 9.6878 25.3495 7.52419 25.3495 4.8439C25.3495 2.16361 23.4755 0 21.1364 0C18.7973 0 16.9091 2.16361 16.9091 4.8439C16.9091 7.52419 18.7973 9.6878 21.1364 9.6878ZM9.86364 9.6878C12.2027 9.6878 14.0768 7.52419 14.0768 4.8439C14.0768 2.16361 12.2027 0 9.86364 0C7.52455 0 5.63636 2.16361 5.63636 4.8439C5.63636 7.52419 7.52455 9.6878 9.86364 9.6878ZM9.86364 12.9171C6.58045 12.9171 0 14.8062 0 18.5683V22.6049H19.7273V18.5683C19.7273 14.8062 13.1468 12.9171 9.86364 12.9171ZM21.1364 12.9171C20.7277 12.9171 20.2627 12.9494 19.7695 12.9978C21.4041 14.3541 22.5455 16.1786 22.5455 18.5683V22.6049H31V18.5683C31 14.8062 24.4195 12.9171 21.1364 12.9171Z" fill="white"/>
</mask>
<g mask="url(#mask0_3098_1317)">
<rect x="-6.93359" y="-12.3594" width="44.6861" height="47.6731" fill="#9C9C9C"/>
</g>
</svg>
